<svg width="122" height="32" viewBox="0 0 122 32" fill="none" xmlns="http://www.w3.org/2000/svg">
<path d="M47.5678 7.08838L46.3711 11.1356H48.5232V23.9764H52.6429V7.08838H47.5678Z" fill="#0073C4" fill-opacity="0.9922"/>
<path d="M8.61098 6.75366C3.47791 6.75366 0 10.5021 0 15.5343C0 20.532 3.47861 24.3142 8.61098 24.3142C13.7106 24.3142 17.1888 20.532 17.1888 15.5343C17.1888 10.5021 13.7099 6.75366 8.61098 6.75366ZM8.61098 20.2282C5.90947 20.2282 4.08559 18.202 4.08559 15.5343C4.08559 12.8326 5.90947 10.8068 8.61098 10.8068C11.2793 10.8068 13.1022 12.8334 13.1022 15.5343C13.1022 18.2021 11.2793 20.2282 8.61098 20.2282Z" fill="#0073C4" fill-opacity="0.9922"/>
<path d="M27.722 6.75452C22.5555 6.75452 19.1445 10.5371 19.1445 15.5348V30.7318H23.1968H23.1974V22.0521C24.4467 23.47 26.2028 24.3145 28.3981 24.3145C33.0244 24.3145 36.2997 20.6341 36.2997 15.5348C36.2997 10.4019 32.72 6.75452 27.722 6.75452ZM27.722 20.2282C25.1554 20.2282 23.1974 18.2362 23.1974 15.5344C23.1974 13.0352 24.7847 10.8068 27.722 10.8068C30.5588 10.8068 32.2473 13.036 32.2473 15.5344C32.2474 18.1009 30.4238 20.2282 27.722 20.2282Z" fill="#0073C4" fill-opacity="0.9922"/>
<path d="M45.5133 20.4646C42.9494 20.4634 41.7006 19.2479 41.7006 17.2229V11.144L44.5277 11.1324L45.7348 7.09177H41.7006V3.10657L37.6484 4.62969V17.2229C37.6484 21.0757 39.7739 23.5951 43.6685 24.1821L45.514 20.4646H45.5133Z" fill="#0073C4" fill-opacity="0.9922"/>
<path d="M48.3203 2.29588C48.3203 3.57971 49.2324 4.52511 50.5829 4.52511C51.9335 4.52511 52.845 3.57971 52.845 2.29588C52.845 0.911239 51.9335 0 50.5829 0C49.2318 0 48.3203 0.912219 48.3203 2.29588Z" fill="#E5484D"/>
<path d="M71.3474 15.5343C71.3474 12.6638 72.7999 10.8068 75.0625 10.8068C77.325 10.8068 78.743 12.7991 78.743 15.5343V23.9763H82.7615V15.5343C82.7615 10.3671 79.5532 6.75366 75.0616 6.75366C72.6974 6.75366 70.6715 7.69948 69.2872 9.35436C67.9021 7.69962 65.9102 6.75366 63.5456 6.75366C59.0542 6.75366 55.8125 10.3671 55.8125 15.5343V23.9763H59.8648V15.5343C59.8648 12.6638 61.3169 10.8068 63.5454 10.8068C65.8759 10.8068 67.2268 12.7991 67.2268 15.5343V23.9763H71.3464V15.5343H71.3474Z" fill="#0073C4" fill-opacity="0.9922"/>
<path d="M100.999 15.5342V7.09155H96.9802V15.5342C96.9802 18.1681 95.3596 20.2281 93.0973 20.2281C90.8348 20.2281 89.2134 18.2693 89.2134 15.5342V7.09155H85.0938V15.5342C85.0938 20.5661 88.5039 24.3141 93.097 24.3141C97.588 24.3141 100.999 20.5655 100.999 15.5342Z" fill="#0073C4" fill-opacity="0.9922"/>
<path d="M117.103 19.215C117.103 12.6973 107.377 15.0952 107.377 11.8534C107.377 10.8402 108.391 10.0637 109.775 10.0637C111.734 10.0637 112.781 11.1107 113.017 12.5965H117.036C116.63 9.2527 114.334 6.75366 109.944 6.75366C105.757 6.75366 103.291 9.04996 103.291 11.9212C103.291 18.2361 112.984 15.8044 112.984 19.1814C112.984 20.1605 112.106 21.0044 110.485 21.0044C108.391 21.0044 107.04 20.1607 106.804 18.6066H102.785C103.089 22.0177 106.061 24.3142 110.586 24.3142C114.503 24.3142 117.103 22.1523 117.103 19.215H117.103Z" fill="#0073C4" fill-opacity="0.9922"/>
<path d="M117.477 8.68309C117.477 9.78265 118.272 10.6723 119.466 10.6723C120.67 10.6723 121.455 9.78265 121.455 8.68309C121.455 7.57792 120.67 6.69385 119.466 6.69385C118.272 6.69399 117.477 7.57792 117.477 8.68309ZM119.466 7.10256C120.433 7.10256 121.052 7.84886 121.052 8.68309C121.052 9.51213 120.433 10.2636 119.466 10.2636C118.51 10.2636 117.88 9.51213 117.88 8.68309C117.88 7.84886 118.511 7.10256 119.466 7.10256ZM118.753 9.66671H119.157V9.04237H119.273C119.527 9.0918 119.709 9.27956 119.869 9.66671H120.3C120.184 9.35713 120.051 9.1303 119.896 8.96494C120.117 8.85447 120.255 8.63856 120.255 8.37924C120.255 8.00344 119.969 7.71038 119.543 7.71038H118.753V9.66629V9.66671H118.753ZM119.853 8.37924C119.853 8.53943 119.731 8.65018 119.543 8.65018H119.156V8.09221H119.543C119.731 8.09207 119.853 8.21906 119.853 8.37924Z" fill="#0073C4" fill-opacity="0.9922"/>
<path d="M87.7853 27.2635V28.6428C88.0616 28.3482 88.4083 28.2012 88.8261 28.2012C89.2428 28.2012 89.5862 28.3435 89.8554 28.6289C90.1215 28.9119 90.2551 29.2635 90.2551 29.6827C90.2551 30.1012 90.1215 30.453 89.8554 30.7359C89.5862 31.0214 89.2428 31.1636 88.8261 31.1636C88.4044 31.1636 88.0584 31.017 87.7853 30.7221V31.0951H87.3906V27.2936L87.7576 27.2411L87.7845 27.2636H87.7853V27.2635ZM88.7869 30.8018C89.107 30.8018 89.3646 30.6942 89.5591 30.48C89.7522 30.2642 89.8492 29.999 89.8492 29.6827C89.8492 29.3664 89.7522 29.1005 89.5591 28.885C89.3638 28.6705 89.107 28.5617 88.7869 28.5617C88.4895 28.5617 88.2412 28.6589 88.0423 28.8519C87.8413 29.0472 87.7418 29.3236 87.7418 29.6827C87.7418 30.0412 87.8422 30.3173 88.0423 30.5104C88.239 30.705 88.4879 30.8018 88.7869 30.8018Z" fill="#0073C4" fill-opacity="0.9922"/>
<path d="M92.7985 28.2705H93.1791L93.2016 28.3029L91.8607 31.3383C91.7548 31.588 91.6456 31.7617 91.5375 31.8599C91.4311 31.953 91.2834 32 91.0935 32C90.927 32 90.7863 31.9626 90.6744 31.887L90.6628 31.8513L90.7813 31.5913L90.8178 31.5808C90.8957 31.6375 90.9864 31.6659 91.0885 31.6659C91.1839 31.6659 91.2579 31.6434 91.3116 31.5971C91.3654 31.5488 91.4242 31.4524 91.4885 31.3055L91.6487 30.9495L90.5117 28.303L90.5345 28.2706H90.937L91.8618 30.4744L92.7995 28.2706H92.7985V28.2705Z" fill="#0073C4" fill-opacity="0.9922"/>
<path d="M96.177 27.4237H96.3597L98.0533 31.0619L98.037 31.095H97.6364L97.2558 30.2641H95.2617L94.879 31.095H94.4888L94.4727 31.0619L96.177 27.4237ZM96.2625 28.0885L95.4266 29.9034H97.0869L96.2625 28.0885Z" fill="#0073C4" fill-opacity="0.9922"/>
<path d="M100.128 27.3205L100.138 27.3534L100.003 27.619L99.9674 27.6324C99.8614 27.5686 99.7442 27.5365 99.6175 27.5365C99.452 27.5365 99.3188 27.5889 99.2199 27.6945C99.1204 27.8001 99.0712 27.9545 99.0712 28.1567V28.2695H99.9562V28.6088H99.0712V31.0951H98.674V28.6088H98.1992V28.2695H98.674V28.1567C98.674 27.8366 98.7663 27.5949 98.9528 27.4307C99.1379 27.2677 99.3582 27.1858 99.6117 27.1858C99.8219 27.1858 99.993 27.2305 100.128 27.3203H100.128V27.3205Z" fill="#0073C4" fill-opacity="0.9922"/>
<path d="M101.967 28.2813L101.984 28.3142L101.854 28.6257L101.818 28.6421C101.75 28.596 101.652 28.5735 101.525 28.5756C101.32 28.5756 101.159 28.6609 101.037 28.8321C100.913 29.0006 100.852 29.2181 100.852 29.4828V31.0941H100.457V28.2695H100.836V28.6473C101.001 28.3498 101.251 28.201 101.586 28.201C101.722 28.201 101.849 28.2275 101.966 28.281H101.967V28.2813Z" fill="#0073C4" fill-opacity="0.9922"/>
<path d="M102.882 27.6716C102.818 27.7365 102.741 27.7686 102.65 27.7686C102.56 27.7686 102.483 27.7365 102.418 27.6716C102.356 27.6081 102.324 27.5306 102.324 27.4398C102.324 27.3498 102.357 27.2725 102.418 27.2082C102.483 27.1435 102.56 27.1122 102.65 27.1122C102.74 27.1122 102.818 27.1442 102.882 27.2082C102.945 27.2721 102.976 27.3492 102.976 27.4398C102.976 27.5303 102.945 27.6071 102.882 27.6716ZM102.846 31.0956H102.451V28.2708H102.846V31.0956Z" fill="#0073C4" fill-opacity="0.9922"/>
<path d="M105.089 28.2013C105.443 28.2013 105.726 28.3092 105.935 28.5266C106.143 28.7461 106.247 29.0271 106.247 29.3707V31.095H105.847V29.412C105.847 29.1538 105.773 28.9468 105.626 28.789C105.48 28.6344 105.28 28.5572 105.028 28.5572C104.771 28.5572 104.562 28.6352 104.405 28.7913C104.243 28.9479 104.162 29.154 104.162 29.4122V31.0952H103.762V28.2705H104.14V28.6429C104.354 28.3482 104.671 28.2013 105.089 28.2013Z" fill="#0073C4" fill-opacity="0.9922"/>
<path d="M109.041 28.2705H109.413L109.43 28.3029L108.13 31.0952H107.951L106.641 28.3029L106.657 28.2705H107.068L108.036 30.4575L109.041 28.2705Z" fill="#0073C4" fill-opacity="0.9922"/>
<path d="M112.463 29.8012H110.074C110.097 30.1138 110.211 30.3583 110.416 30.535C110.618 30.7135 110.86 30.8017 111.141 30.8017C111.316 30.8017 111.498 30.7645 111.685 30.6887C111.868 30.6152 112.012 30.5095 112.118 30.371H112.151L112.394 30.5757V30.6086C112.261 30.7897 112.08 30.9256 111.85 31.02C111.62 31.1152 111.388 31.163 111.153 31.163C110.748 31.163 110.398 31.0302 110.104 30.7624C109.809 30.4979 109.66 30.1413 109.66 29.6926C109.66 29.2659 109.796 28.9113 110.068 28.6278C110.339 28.3427 110.675 28.2002 111.078 28.2002C111.466 28.2002 111.79 28.3272 112.049 28.5809C112.332 28.8572 112.473 29.2051 112.473 29.6263C112.473 29.697 112.47 29.7544 112.462 29.8002L112.463 29.8012ZM111.079 28.5619C110.813 28.5619 110.591 28.641 110.412 28.7996C110.228 28.9616 110.121 29.1754 110.086 29.4398H112.069C112.036 29.2009 111.946 29.0047 111.796 28.852C111.624 28.659 111.385 28.5619 111.08 28.5619H111.079Z" fill="#0073C4" fill-opacity="0.9922"/>
<path d="M113.908 31.1637C113.456 31.1637 113.1 30.9926 112.84 30.6473V30.6145L113.088 30.4097H113.125C113.2 30.5316 113.306 30.6282 113.442 30.7003C113.58 30.7719 113.726 30.8076 113.88 30.8076C114.062 30.8076 114.21 30.7687 114.324 30.6893C114.438 30.6081 114.495 30.5046 114.495 30.3776C114.495 30.2675 114.452 30.1607 114.365 30.0575C114.336 30.0288 114.277 29.9902 114.192 29.942C114.105 29.8975 114.046 29.8686 114.015 29.8545C113.965 29.8336 113.89 29.8035 113.788 29.7629C113.673 29.7148 113.575 29.6698 113.496 29.6272C113.428 29.5924 113.35 29.5434 113.261 29.4783C113.099 29.3515 113.017 29.1849 113.017 28.9766C113.017 28.7409 113.102 28.5534 113.273 28.4134C113.446 28.272 113.674 28.2013 113.955 28.2013C114.138 28.2013 114.315 28.2443 114.484 28.3304C114.655 28.4203 114.786 28.5354 114.875 28.676V28.7121L114.625 28.9134H114.592C114.519 28.8042 114.424 28.7185 114.306 28.6537C114.187 28.5898 114.065 28.5575 113.937 28.5575C113.783 28.5575 113.659 28.5921 113.563 28.6615C113.469 28.7314 113.421 28.824 113.421 28.9378C113.421 29.0462 113.463 29.1349 113.548 29.2026C113.629 29.2675 113.764 29.3409 113.953 29.4239C114.281 29.5669 114.495 29.6746 114.591 29.746C114.798 29.9006 114.902 30.1099 114.902 30.3724C114.902 30.6081 114.811 30.7991 114.629 30.9465C114.445 31.0914 114.204 31.1641 113.907 31.1641H113.908V31.1637Z" fill="#0073C4" fill-opacity="0.9922"/>
<path d="M116.932 30.6647L116.969 30.6763L117.104 30.9384L117.093 30.9712C116.931 31.0997 116.748 31.1644 116.544 31.1644C116.289 31.1644 116.088 31.0868 115.942 30.9328C115.797 30.7782 115.725 30.5598 115.725 30.2761V28.6096H115.25V28.2705H115.725V27.4069L116.092 27.3544L116.118 27.3768V28.2705H117.006V28.6096H116.118V30.2705C116.118 30.629 116.27 30.8076 116.576 30.8076C116.723 30.8076 116.841 30.7607 116.932 30.6647H116.932Z" fill="#0073C4" fill-opacity="0.9922"/>
</svg>
